<svg xmlns="http://www.w3.org/2000/svg" xmlns:xlink="http://www.w3.org/1999/xlink" version="1.1" id="Your_Icon" x="0px" y="0px" width="100px" height="100px" viewBox="0 0 100 100" enable-background="new 0 0 100 100" xml:space="preserve">
<path d="M72,66c-8.271,0-15-6.729-15-15c0-7.148,5.026-13.145,11.73-14.641C67.507,30.453,62.264,26,56,26c-7.168,0-13,5.832-13,13  h-6c0-10.477,8.523-19,19-19s19,8.523,19,19v3h-3c-4.963,0-9,4.037-9,9c0,4.962,4.037,9,9,9V66z"/>
<path d="M61,88c-3.404,0-6.543-1.708-8.397-4.567L33.328,53.67C30.497,49.304,29,44.231,29,39c0-14.888,12.112-27,27-27  c9.068,0,17.102,4.458,22,11.328V9.389C71.847,4.771,64.234,2,56,2C35.598,2,19,18.599,19,39c0,7.166,2.053,14.12,5.937,20.108  L44.211,88.87C47.917,94.587,54.193,98,61,98c11.028,0,20-8.972,20-20H71C71,83.514,66.514,88,61,88z"/>
</svg>