<svg xmlns="http://www.w3.org/2000/svg" xmlns:xlink="http://www.w3.org/1999/xlink" version="1.1" width="96" height="96" viewBox="0 0 96 96">
<path d="M82 96h-68c-7.72 0-14-6.28-14-14v-68c0-7.72 6.28-14 14-14h68c7.72 0 14 6.28 14 14v68c0 7.72-6.28 14-14 14zM14 4c-5.512 0-10 4.484-10 10v68c0 5.516 4.488 10 10 10h68c5.512 0 10-4.484 10-10v-68c0-5.516-4.488-10-10-10h-68z" fill="#000000"/>
	<path d="M18 38c-4.412 0-8-3.584-8-8s3.588-8 8-8 8 3.584 8 8-3.588 8-8 8zM18 26c-2.204 0-4 1.792-4 4s1.796 4 4 4 4-1.792 4-4-1.796-4-4-4z" fill="#000000"/>
	<path d="M46 46c-4.412 0-8-3.584-8-8s3.588-8 8-8c4.416 0 8 3.584 8 8s-3.584 8-8 8zM46 34c-2.204 0-4 1.792-4 4s1.796 4 4 4 4-1.792 4-4-1.796-4-4-4z" fill="#000000"/>
	<path d="M74 30c-4.416 0-8-3.584-8-8s3.584-8 8-8 8 3.584 8 8-3.584 8-8 8zM74 18c-2.204 0-4 1.792-4 4s1.796 4 4 4 4-1.792 4-4-1.796-4-4-4z" fill="#000000"/>
	<path d="M18 58c-1.104 0-2-0.896-2-2v-20c0-1.104 0.896-2 2-2s2 0.896 2 2v20c0 1.104-0.896 2-2 2z" fill="#000000"/>
	<path d="M18 26c-1.104 0-2-0.896-2-2v-12c0-1.104 0.896-2 2-2s2 0.896 2 2v12c0 1.104-0.896 2-2 2z" fill="#000000"/>
	<path d="M46 34c-1.104 0-2-0.896-2-2v-20c0-1.104 0.896-2 2-2s2 0.896 2 2v20c0 1.104-0.896 2-2 2z" fill="#000000"/>
	<path d="M46 58c-1.104 0-2-0.896-2-2v-12c0-1.104 0.896-2 2-2s2 0.896 2 2v12c0 1.104-0.896 2-2 2z" fill="#000000"/>
	<path d="M74 58c-1.1 0-2-0.896-2-2v-28c0-1.104 0.9-2 2-2s2 0.896 2 2v28c0 1.104-0.9 2-2 2z" fill="#000000"/>
	<path d="M74 18c-1.1 0-2-0.896-2-2v-4c0-1.104 0.9-2 2-2s2 0.896 2 2v4c0 1.104-0.9 2-2 2z" fill="#000000"/>
	<path d="M17.992 89.752c-2.64 0-5.136-0.86-7.22-2.476-2.476-1.928-4.048-4.716-4.436-7.82-0.384-3.116 0.468-6.204 2.396-8.668 3.856-4.952 11.52-5.916 16.492-2.052 5.108 3.984 6.024 11.392 2.040 16.492-2.244 2.872-5.624 4.524-9.272 4.524zM18.004 70.252c-2.408 0-4.64 1.088-6.116 2.988-1.272 1.628-1.832 3.66-1.58 5.724 0.252 2.056 1.292 3.888 2.924 5.156 3.284 2.564 8.332 1.916 10.876-1.344 2.628-3.376 2.024-8.252-1.344-10.884-1.376-1.076-3.020-1.64-4.76-1.64z" fill="#000000"/>
	<path d="M29.036 88.608c-0.428 0-0.864-0.136-1.228-0.42l-9.464-7.38c-0.872-0.68-1.024-1.936-0.348-2.808s1.936-1.032 2.808-0.348l9.464 7.38c0.872 0.68 1.024 1.936 0.348 2.808-0.396 0.504-0.984 0.768-1.58 0.768z" fill="#000000"/>
	<path d="M45.992 89.752c-2.528 0-4.944-0.788-6.98-2.296-5.208-3.856-6.308-11.236-2.456-16.432 3.708-5.004 11.404-6.172 16.432-2.46 2.52 1.876 4.168 4.604 4.632 7.716 0.464 3.096-0.308 6.208-2.176 8.728-2.2 2.96-5.736 4.744-9.452 4.744zM46.008 70.252c-2.488 0-4.764 1.144-6.24 3.14-2.54 3.432-1.812 8.296 1.62 10.836 3.352 2.488 8.376 1.728 10.836-1.608 1.236-1.664 1.744-3.72 1.432-5.756-0.308-2.048-1.396-3.856-3.060-5.084-1.332-1.008-2.92-1.528-4.588-1.528z" fill="#000000"/>
	<path d="M44.392 78.808c-0.412 0-0.832-0.128-1.188-0.396l-9.648-7.132c-0.888-0.66-1.076-1.916-0.416-2.796s1.908-1.084 2.796-0.42l9.648 7.136c0.888 0.66 1.076 1.916 0.416 2.796-0.392 0.532-0.996 0.812-1.608 0.812z" fill="#000000"/>
	<path d="M74.008 89.752c-4.7 0-8.936-2.776-10.796-7.088-2.568-5.948 0.188-12.88 6.132-15.444 1.484-0.64 3.048-0.964 4.648-0.964 4.7 0 8.936 2.784 10.796 7.096 1.244 2.88 1.288 6.076 0.132 8.992-1.164 2.916-3.388 5.212-6.264 6.452-1.484 0.632-3.048 0.956-4.648 0.956zM73.992 70.252c-1.056 0-2.084 0.22-3.064 0.632-1.904 0.82-3.368 2.332-4.132 4.256-0.764 1.916-0.736 4.032 0.084 5.92 1.644 3.808 6.34 5.716 10.192 4.056 1.9-0.82 3.368-2.332 4.128-4.256 0.764-1.916 0.74-4.032-0.084-5.92-1.224-2.856-4.024-4.688-7.124-4.688z" fill="#000000"/>
	<path d="M75.836 79.208c-0.772 0-1.512-0.444-1.836-1.208-0.436-1.016 0.028-2.192 1.044-2.628l11.020-4.752c1.016-0.452 2.188 0.032 2.624 1.044 0.436 1.016-0.028 2.192-1.044 2.628l-11.016 4.752c-0.256 0.112-0.528 0.164-0.792 0.164z" fill="#000000"/>
</svg>